G04 EAGLE Gerber RS-274X export*
G75*
%MOMM*%
%FSLAX34Y34*%
%LPD*%
%INSolderpaste Top*%
%IPPOS*%
%AMOC8*
5,1,8,0,0,1.08239X$1,22.5*%
G01*
%ADD10R,1.700000X1.000000*%
%ADD11R,0.280000X1.488400*%
%ADD12R,1.488400X0.280000*%
%ADD13R,1.469972X0.740169*%
%ADD14R,1.473597X0.749319*%
%ADD15R,1.468559X0.747891*%
%ADD16R,1.472806X0.745769*%
%ADD17R,1.469772X0.740909*%
%ADD18R,1.471466X0.742219*%
%ADD19R,1.468278X0.744459*%
%ADD20R,1.474547X0.744409*%
%ADD21R,1.468575X0.741634*%
%ADD22R,1.474387X0.741884*%
%ADD23R,1.469119X0.739738*%
%ADD24R,1.473488X0.739609*%
%ADD25R,1.468909X0.738100*%
%ADD26R,1.474206X0.737250*%
%ADD27R,1.468338X0.734691*%
%ADD28R,1.471278X0.738469*%
%ADD29R,1.468472X0.732919*%
%ADD30R,1.472747X0.735231*%
%ADD31R,1.469334X0.735950*%
%ADD32R,1.473966X0.730959*%
%ADD33R,1.470000X0.740003*%
%ADD34R,0.622500X0.597500*%
%ADD35R,0.597500X0.622500*%
%ADD36R,1.185400X2.715300*%
%ADD37R,0.554800X0.622500*%
%ADD38R,0.622500X0.554800*%
%ADD39R,1.400000X1.110000*%
%ADD40R,0.599100X1.968500*%
%ADD41R,3.100000X2.600000*%
%ADD42R,1.300000X1.100000*%
%ADD43R,1.100000X1.900000*%
%ADD44R,4.500000X2.300000*%
%ADD45R,1.160000X1.470000*%
%ADD46R,1.480000X1.100000*%
%ADD47R,0.950000X0.859800*%
%ADD48R,1.240200X0.589100*%
%ADD49R,3.700000X0.980000*%
%ADD50R,3.000000X1.600000*%
%ADD51R,1.500000X0.700000*%
%ADD52C,0.600000*%
%ADD53R,1.500000X1.500000*%
%ADD54R,1.298200X0.601500*%
%ADD55R,0.660400X0.876300*%
%ADD56R,0.540000X0.600000*%
%ADD57R,0.350000X0.250000*%
%ADD58R,0.250000X0.250000*%
%ADD59R,0.730000X0.510000*%
%ADD60R,1.000000X1.050000*%
%ADD61R,1.050000X2.200000*%
%ADD62R,1.395600X0.280000*%
%ADD63R,3.838500X5.112300*%
%ADD64R,0.870000X0.980000*%
%ADD65R,2.300000X3.300000*%
%ADD66R,0.990000X1.920000*%
%ADD67R,1.111200X0.600800*%
%ADD68C,0.270000*%
%ADD69R,1.050000X1.000000*%
%ADD70R,2.200000X1.050000*%
%ADD71R,0.990600X3.200400*%
%ADD72R,10.414000X11.455400*%
%ADD73R,1.270000X0.533400*%


D10*
X567900Y588942D03*
X567900Y550942D03*
X630900Y588942D03*
X630900Y550942D03*
D11*
X348000Y435096D03*
X353000Y435096D03*
X358000Y435096D03*
X363000Y435096D03*
X368000Y435096D03*
X373000Y435096D03*
X378000Y435096D03*
X383000Y435096D03*
X388000Y435096D03*
X393000Y435096D03*
X398000Y435096D03*
X403000Y435096D03*
X408000Y435096D03*
X413000Y435096D03*
X418000Y435096D03*
X423000Y435096D03*
X428000Y435096D03*
X433000Y435096D03*
X438000Y435096D03*
X443000Y435096D03*
X448000Y435096D03*
X453000Y435096D03*
X458000Y435096D03*
X463000Y435096D03*
X468000Y435096D03*
D12*
X484204Y451300D03*
X484204Y456300D03*
X484204Y461300D03*
X484204Y466300D03*
X484204Y471300D03*
X484204Y476300D03*
X484204Y481300D03*
X484204Y486300D03*
X484204Y491300D03*
X484204Y496300D03*
X484204Y501300D03*
X484204Y506300D03*
X484204Y511300D03*
X484204Y516300D03*
X484204Y521300D03*
X484204Y526300D03*
X484204Y531300D03*
X484204Y536300D03*
X484204Y541300D03*
X484204Y546300D03*
X484204Y551300D03*
X484204Y556300D03*
X484204Y561300D03*
X484204Y566300D03*
X484204Y571300D03*
D11*
X468000Y587504D03*
X463000Y587504D03*
X458000Y587504D03*
X453000Y587504D03*
X448000Y587504D03*
X443000Y587504D03*
X438000Y587504D03*
X433000Y587504D03*
X428000Y587504D03*
X423000Y587504D03*
X418000Y587504D03*
X413000Y587504D03*
X408000Y587504D03*
X403000Y587504D03*
X398000Y587504D03*
X393000Y587504D03*
X388000Y587504D03*
X383000Y587504D03*
X378000Y587504D03*
X373000Y587504D03*
X368000Y587504D03*
X363000Y587504D03*
X358000Y587504D03*
X353000Y587504D03*
X348000Y587504D03*
D12*
X331796Y571300D03*
X331796Y566300D03*
X331796Y561300D03*
X331796Y556300D03*
X331796Y551300D03*
X331796Y546300D03*
X331796Y541300D03*
X331796Y536300D03*
X331796Y531300D03*
X331796Y526300D03*
X331796Y521300D03*
X331796Y516300D03*
X331796Y511300D03*
X331796Y506300D03*
X331796Y501300D03*
X331796Y496300D03*
X331796Y491300D03*
X331796Y486300D03*
X331796Y481300D03*
X331796Y476300D03*
X331796Y471300D03*
X331796Y466300D03*
X331796Y461300D03*
X331796Y456300D03*
X331796Y451300D03*
D13*
X281130Y894051D03*
D14*
X248852Y894097D03*
D15*
X281137Y881389D03*
D16*
X248856Y881379D03*
D17*
X281131Y868655D03*
D18*
X248863Y868661D03*
D19*
X281139Y855972D03*
D20*
X248847Y855972D03*
D21*
X281137Y843258D03*
D22*
X248848Y843259D03*
D23*
X281134Y830549D03*
D24*
X248853Y830548D03*
D25*
X281135Y817841D03*
D26*
X248849Y817836D03*
D27*
X281138Y805123D03*
D28*
X248864Y805142D03*
D29*
X281138Y792415D03*
D30*
X248856Y792426D03*
D31*
X281133Y779730D03*
D32*
X248850Y779705D03*
D33*
X281130Y894050D03*
X248870Y894050D03*
X281130Y881350D03*
X248870Y881350D03*
X281130Y868650D03*
X248870Y868650D03*
X281130Y855950D03*
X248870Y855950D03*
X281130Y843250D03*
X248870Y843250D03*
X281130Y830550D03*
X248870Y830550D03*
X281130Y817850D03*
X248870Y817850D03*
X281130Y805150D03*
X248870Y805150D03*
X281130Y792450D03*
X248870Y792450D03*
X281130Y779750D03*
X248870Y779750D03*
D34*
X546826Y587307D03*
X546826Y578057D03*
D35*
X436725Y355166D03*
X445975Y355166D03*
D36*
X438384Y378052D03*
X467684Y378052D03*
D34*
X512100Y564275D03*
X512100Y573525D03*
D35*
X358311Y612860D03*
X349061Y612860D03*
D34*
X406834Y355289D03*
X406834Y346039D03*
X383964Y355289D03*
X383964Y346039D03*
X358764Y365989D03*
X358764Y356739D03*
X333164Y365989D03*
X333164Y356739D03*
D37*
X281876Y478447D03*
X291552Y478447D03*
D34*
X286200Y411075D03*
X286200Y420325D03*
D38*
X703000Y427838D03*
X703000Y418162D03*
D39*
X678000Y432096D03*
X678000Y413904D03*
X678000Y484096D03*
X678000Y465904D03*
D40*
X679950Y252266D03*
X692650Y252266D03*
X705350Y252266D03*
X718050Y252266D03*
X718050Y301734D03*
X705350Y301734D03*
X692650Y301734D03*
X679950Y301734D03*
D41*
X699000Y277000D03*
D42*
X383500Y370000D03*
X406500Y370000D03*
X406500Y388000D03*
X383500Y388000D03*
D43*
X333500Y384000D03*
X358500Y384000D03*
D44*
X259350Y387700D03*
X95350Y387700D03*
D45*
X759250Y201100D03*
X741750Y201100D03*
D46*
X685000Y385130D03*
X685000Y366870D03*
X750800Y384830D03*
X750800Y366570D03*
D34*
X690000Y329375D03*
X690000Y338625D03*
D38*
X730800Y329262D03*
X730800Y338938D03*
X743400Y338938D03*
X743400Y329262D03*
X718400Y338638D03*
X718400Y328962D03*
D47*
X704200Y329049D03*
X704200Y344951D03*
D35*
X638625Y417000D03*
X629375Y417000D03*
D48*
X643556Y440500D03*
X643556Y459500D03*
X622444Y450000D03*
D49*
X643000Y313050D03*
X643000Y336750D03*
D50*
X653300Y198900D03*
X697300Y198900D03*
D49*
X730000Y463150D03*
X730000Y486850D03*
D51*
X54000Y723000D03*
X54000Y712000D03*
X54000Y701000D03*
X54000Y690000D03*
X54000Y679000D03*
X54000Y668000D03*
X54000Y657000D03*
X54000Y646000D03*
X194000Y646000D03*
X194000Y657000D03*
X194000Y668000D03*
X194000Y679000D03*
X194000Y690000D03*
X194000Y701000D03*
X194000Y712000D03*
X194000Y723000D03*
D52*
X101500Y655000D03*
X116500Y655000D03*
X131500Y655000D03*
X146500Y655000D03*
X101500Y667000D03*
X116500Y667000D03*
X131500Y667000D03*
X146500Y667000D03*
X101500Y679000D03*
X116500Y679000D03*
X131500Y679000D03*
X146500Y679000D03*
X101500Y691000D03*
X116500Y691000D03*
X131500Y691000D03*
X146500Y691000D03*
X101500Y703000D03*
X101500Y715000D03*
X116500Y715000D03*
X116500Y703000D03*
X131500Y703000D03*
X131500Y715000D03*
X146500Y715000D03*
X146500Y703000D03*
D53*
X90300Y735000D03*
X112800Y735000D03*
X135300Y735000D03*
X157800Y735000D03*
D37*
X214462Y635000D03*
X224138Y635000D03*
D54*
X582166Y311200D03*
X582166Y330200D03*
X561634Y320700D03*
D55*
X666000Y837788D03*
X677000Y837788D03*
X688000Y837788D03*
X699000Y837788D03*
X710000Y837788D03*
X721000Y837788D03*
X732000Y837788D03*
X743000Y837788D03*
X754000Y837788D03*
X754000Y936213D03*
X743000Y936213D03*
X732000Y936213D03*
X721000Y936213D03*
X710000Y936213D03*
X699000Y936213D03*
X688000Y936213D03*
X677000Y936213D03*
X666000Y936213D03*
D56*
X743280Y811600D03*
X751920Y811600D03*
D35*
X752625Y799100D03*
X743375Y799100D03*
X743075Y824000D03*
X752325Y824000D03*
X678175Y810900D03*
X687425Y810900D03*
X666675Y823500D03*
X675925Y823500D03*
X697875Y796100D03*
X707125Y796100D03*
X701175Y950200D03*
X710425Y950200D03*
D34*
X742900Y947675D03*
X742900Y956925D03*
D57*
X740400Y972600D03*
X737900Y968600D03*
X742900Y968600D03*
X737900Y964600D03*
X742900Y964600D03*
D58*
X732500Y983300D03*
X736500Y983300D03*
X740500Y983300D03*
X740500Y987300D03*
X736500Y987300D03*
X732500Y987300D03*
D59*
X736500Y996600D03*
X736500Y1005800D03*
D34*
X736400Y1014275D03*
X736400Y1023525D03*
X721000Y978725D03*
X721000Y969475D03*
D38*
X721400Y1004038D03*
X721400Y994362D03*
D60*
X736700Y1035850D03*
D61*
X721950Y1051100D03*
X751450Y1051100D03*
D44*
X260350Y543700D03*
X96350Y543700D03*
D62*
X646127Y155600D03*
X646127Y150600D03*
X646127Y145600D03*
X646127Y140600D03*
X646127Y135600D03*
X689873Y135600D03*
X689873Y140600D03*
X689873Y145600D03*
X689873Y150600D03*
X689873Y155600D03*
D63*
X679115Y88800D03*
X728155Y88800D03*
D37*
X707162Y147600D03*
X716838Y147600D03*
X707162Y134600D03*
X716838Y134600D03*
D64*
X678700Y39000D03*
X694300Y39000D03*
D65*
X532900Y227700D03*
X602900Y227700D03*
D66*
X619900Y376000D03*
X664100Y376000D03*
D67*
X627450Y39400D03*
X661950Y39400D03*
D35*
X558375Y445000D03*
X567625Y445000D03*
D68*
X535500Y381604D02*
X535500Y374704D01*
X540500Y374704D02*
X540500Y381604D01*
X545500Y381604D02*
X545500Y374704D01*
X550500Y374704D02*
X550500Y381604D01*
X555500Y381604D02*
X555500Y374704D01*
X560500Y374704D02*
X560500Y381604D01*
X564396Y385500D02*
X571296Y385500D01*
X571296Y390500D02*
X564396Y390500D01*
X564396Y395500D02*
X571296Y395500D01*
X571296Y400500D02*
X564396Y400500D01*
X564396Y405500D02*
X571296Y405500D01*
X571296Y410500D02*
X564396Y410500D01*
X560500Y414396D02*
X560500Y421296D01*
X555500Y421296D02*
X555500Y414396D01*
X550500Y414396D02*
X550500Y421296D01*
X545500Y421296D02*
X545500Y414396D01*
X540500Y414396D02*
X540500Y421296D01*
X535500Y421296D02*
X535500Y414396D01*
X531604Y410500D02*
X524704Y410500D01*
X524704Y405500D02*
X531604Y405500D01*
X531604Y400500D02*
X524704Y400500D01*
X524704Y395500D02*
X531604Y395500D01*
X531604Y390500D02*
X524704Y390500D01*
X524704Y385500D02*
X531604Y385500D01*
D35*
X558375Y432000D03*
X567625Y432000D03*
D69*
X165250Y981000D03*
D70*
X150000Y966250D03*
X150000Y995750D03*
D69*
X165250Y1046000D03*
D70*
X150000Y1031250D03*
X150000Y1060750D03*
D71*
X542700Y43227D03*
D72*
X568100Y131492D03*
D71*
X593500Y43227D03*
D73*
X723808Y431398D03*
X723808Y422000D03*
X723808Y412602D03*
X748192Y412602D03*
X748192Y431398D03*
D46*
X707000Y385130D03*
X707000Y366870D03*
X729000Y385130D03*
X729000Y366870D03*
M02*
