G04 EAGLE Gerber RS-274X export*
G75*
%MOMM*%
%FSLAX34Y34*%
%LPD*%
%INSolderpaste Bottom*%
%IPPOS*%
%AMOC8*
5,1,8,0,0,1.08239X$1,22.5*%
G01*
%ADD10R,0.597500X0.622500*%
%ADD11R,0.622500X0.597500*%
%ADD12R,0.859800X0.950000*%
%ADD13R,0.599100X2.056000*%
%ADD14R,0.950000X0.859800*%
%ADD15R,0.850000X0.250000*%
%ADD16R,1.650000X2.550000*%
%ADD17R,0.950000X0.700000*%
%ADD18R,0.554800X0.622500*%
%ADD19R,0.500000X0.500000*%
%ADD20C,0.147500*%
%ADD21R,0.550000X1.200000*%
%ADD22R,0.622500X0.554800*%
%ADD23R,1.298200X0.601500*%
%ADD24R,0.220000X0.280000*%
%ADD25R,0.700000X1.900000*%
%ADD26R,1.700000X1.800000*%
%ADD27R,1.400000X2.600000*%
%ADD28R,0.990000X1.920000*%


D10*
X394732Y407350D03*
X385482Y407350D03*
X500269Y471079D03*
X509519Y471079D03*
X501297Y548831D03*
X492047Y548831D03*
X501297Y561302D03*
X492047Y561302D03*
D11*
X357039Y601718D03*
X357039Y592468D03*
X369561Y601743D03*
X369561Y592493D03*
D10*
X315532Y462434D03*
X324782Y462434D03*
X370968Y407743D03*
X361718Y407743D03*
X500268Y483722D03*
X509518Y483722D03*
X315506Y475028D03*
X324756Y475028D03*
X445264Y394333D03*
X436014Y394333D03*
X459204Y394435D03*
X468454Y394435D03*
D12*
X445288Y408582D03*
X429386Y408582D03*
X459129Y408557D03*
X475031Y408557D03*
D13*
X197250Y198717D03*
X209950Y198717D03*
X222650Y198717D03*
X235350Y198717D03*
X248050Y198717D03*
X260750Y198717D03*
X273450Y198717D03*
X286150Y198717D03*
X286150Y105883D03*
X273450Y105883D03*
X260750Y105883D03*
X248050Y105883D03*
X235350Y105883D03*
X222650Y105883D03*
X209950Y105883D03*
X197250Y105883D03*
X64750Y197917D03*
X77450Y197917D03*
X90150Y197917D03*
X102850Y197917D03*
X115550Y197917D03*
X128250Y197917D03*
X140950Y197917D03*
X153650Y197917D03*
X153650Y105083D03*
X140950Y105083D03*
X128250Y105083D03*
X115550Y105083D03*
X102850Y105083D03*
X90150Y105083D03*
X77450Y105083D03*
X64750Y105083D03*
D14*
X197200Y220649D03*
X197200Y236551D03*
X235600Y220249D03*
X235600Y236151D03*
X216500Y236451D03*
X216500Y220549D03*
X254900Y220149D03*
X254900Y236051D03*
D12*
X196749Y81300D03*
X212651Y81300D03*
X63449Y80000D03*
X79351Y80000D03*
D14*
X65200Y219649D03*
X65200Y235551D03*
X104300Y219449D03*
X104300Y235351D03*
X84400Y235451D03*
X84400Y219549D03*
X124400Y219449D03*
X124400Y235351D03*
D15*
X587900Y746150D03*
X587900Y741650D03*
X587900Y737150D03*
X587900Y732650D03*
X587900Y728150D03*
X587900Y723650D03*
X558900Y723650D03*
X558900Y728150D03*
X558900Y732650D03*
X558900Y737150D03*
X558900Y741650D03*
X558900Y746150D03*
D16*
X573400Y734900D03*
D17*
X618750Y731900D03*
X635250Y731900D03*
D18*
X588362Y758600D03*
X598038Y758600D03*
X559038Y758800D03*
X549362Y758800D03*
D10*
X597825Y771100D03*
X588575Y771100D03*
X549575Y771300D03*
X558825Y771300D03*
D11*
X635200Y709275D03*
X635200Y718525D03*
D10*
X598975Y717800D03*
X608225Y717800D03*
D19*
X598400Y707700D03*
X608400Y707700D03*
D11*
X604500Y738075D03*
X604500Y747325D03*
D20*
X343063Y650037D02*
X324037Y650037D01*
X324037Y654463D01*
X343063Y654463D01*
X343063Y650037D01*
X343063Y651438D02*
X324037Y651438D01*
X324037Y652839D02*
X343063Y652839D01*
X343063Y654240D02*
X324037Y654240D01*
X324037Y662737D02*
X343063Y662737D01*
X324037Y662737D02*
X324037Y667163D01*
X343063Y667163D01*
X343063Y662737D01*
X343063Y664138D02*
X324037Y664138D01*
X324037Y665539D02*
X343063Y665539D01*
X343063Y666940D02*
X324037Y666940D01*
X324037Y675437D02*
X343063Y675437D01*
X324037Y675437D02*
X324037Y679863D01*
X343063Y679863D01*
X343063Y675437D01*
X343063Y676838D02*
X324037Y676838D01*
X324037Y678239D02*
X343063Y678239D01*
X343063Y679640D02*
X324037Y679640D01*
X324037Y688137D02*
X343063Y688137D01*
X324037Y688137D02*
X324037Y692563D01*
X343063Y692563D01*
X343063Y688137D01*
X343063Y689538D02*
X324037Y689538D01*
X324037Y690939D02*
X343063Y690939D01*
X343063Y692340D02*
X324037Y692340D01*
X324037Y700837D02*
X343063Y700837D01*
X324037Y700837D02*
X324037Y705263D01*
X343063Y705263D01*
X343063Y700837D01*
X343063Y702238D02*
X324037Y702238D01*
X324037Y703639D02*
X343063Y703639D01*
X343063Y705040D02*
X324037Y705040D01*
X324037Y713537D02*
X343063Y713537D01*
X324037Y713537D02*
X324037Y717963D01*
X343063Y717963D01*
X343063Y713537D01*
X343063Y714938D02*
X324037Y714938D01*
X324037Y716339D02*
X343063Y716339D01*
X343063Y717740D02*
X324037Y717740D01*
X324037Y726237D02*
X343063Y726237D01*
X324037Y726237D02*
X324037Y730663D01*
X343063Y730663D01*
X343063Y726237D01*
X343063Y727638D02*
X324037Y727638D01*
X324037Y729039D02*
X343063Y729039D01*
X343063Y730440D02*
X324037Y730440D01*
X324037Y738937D02*
X343063Y738937D01*
X324037Y738937D02*
X324037Y743363D01*
X343063Y743363D01*
X343063Y738937D01*
X343063Y740338D02*
X324037Y740338D01*
X324037Y741739D02*
X343063Y741739D01*
X343063Y743140D02*
X324037Y743140D01*
X417137Y738937D02*
X436163Y738937D01*
X417137Y738937D02*
X417137Y743363D01*
X436163Y743363D01*
X436163Y738937D01*
X436163Y740338D02*
X417137Y740338D01*
X417137Y741739D02*
X436163Y741739D01*
X436163Y743140D02*
X417137Y743140D01*
X417137Y726237D02*
X436163Y726237D01*
X417137Y726237D02*
X417137Y730663D01*
X436163Y730663D01*
X436163Y726237D01*
X436163Y727638D02*
X417137Y727638D01*
X417137Y729039D02*
X436163Y729039D01*
X436163Y730440D02*
X417137Y730440D01*
X417137Y713537D02*
X436163Y713537D01*
X417137Y713537D02*
X417137Y717963D01*
X436163Y717963D01*
X436163Y713537D01*
X436163Y714938D02*
X417137Y714938D01*
X417137Y716339D02*
X436163Y716339D01*
X436163Y717740D02*
X417137Y717740D01*
X417137Y700837D02*
X436163Y700837D01*
X417137Y700837D02*
X417137Y705263D01*
X436163Y705263D01*
X436163Y700837D01*
X436163Y702238D02*
X417137Y702238D01*
X417137Y703639D02*
X436163Y703639D01*
X436163Y705040D02*
X417137Y705040D01*
X417137Y688137D02*
X436163Y688137D01*
X417137Y688137D02*
X417137Y692563D01*
X436163Y692563D01*
X436163Y688137D01*
X436163Y689538D02*
X417137Y689538D01*
X417137Y690939D02*
X436163Y690939D01*
X436163Y692340D02*
X417137Y692340D01*
X417137Y675437D02*
X436163Y675437D01*
X417137Y675437D02*
X417137Y679863D01*
X436163Y679863D01*
X436163Y675437D01*
X436163Y676838D02*
X417137Y676838D01*
X417137Y678239D02*
X436163Y678239D01*
X436163Y679640D02*
X417137Y679640D01*
X417137Y662737D02*
X436163Y662737D01*
X417137Y662737D02*
X417137Y667163D01*
X436163Y667163D01*
X436163Y662737D01*
X436163Y664138D02*
X417137Y664138D01*
X417137Y665539D02*
X436163Y665539D01*
X436163Y666940D02*
X417137Y666940D01*
X417137Y650037D02*
X436163Y650037D01*
X417137Y650037D02*
X417137Y654463D01*
X436163Y654463D01*
X436163Y650037D01*
X436163Y651438D02*
X417137Y651438D01*
X417137Y652839D02*
X436163Y652839D01*
X436163Y654240D02*
X417137Y654240D01*
D18*
X449062Y665000D03*
X458738Y665000D03*
X449062Y652400D03*
X458738Y652400D03*
X309738Y677100D03*
X300062Y677100D03*
D10*
X309325Y664600D03*
X300075Y664600D03*
D21*
X154400Y496200D03*
X163900Y496200D03*
X173400Y496200D03*
X173400Y470200D03*
X154400Y470200D03*
D22*
X173300Y508862D03*
X173300Y518538D03*
X154400Y509362D03*
X154400Y519038D03*
D10*
X167825Y455200D03*
X158575Y455200D03*
D23*
X315534Y312600D03*
X315534Y331600D03*
X336066Y322100D03*
D24*
X356300Y294300D03*
X359900Y294300D03*
D18*
X363038Y306400D03*
X353362Y306400D03*
X363038Y318900D03*
X353362Y318900D03*
X353362Y331400D03*
X363038Y331400D03*
X353362Y343900D03*
X363038Y343900D03*
D25*
X373200Y201700D03*
X384200Y201700D03*
X395200Y201700D03*
X406200Y201700D03*
X417200Y201700D03*
X428200Y201700D03*
X439200Y201700D03*
X450200Y201700D03*
X461200Y201700D03*
D26*
X476700Y191200D03*
X321700Y191200D03*
D27*
X474200Y95200D03*
X317200Y95200D03*
D28*
X553600Y684500D03*
X597800Y684500D03*
M02*
