G04 EAGLE Gerber RS-274X export*
G75*
%MOMM*%
%FSLAX34Y34*%
%LPD*%
%INSoldermask Top*%
%IPPOS*%
%AMOC8*
5,1,8,0,0,1.08239X$1,22.5*%
G01*
%ADD10C,3.304800*%
%ADD11R,2.004800X1.304800*%
%ADD12R,0.584800X1.793200*%
%ADD13R,1.793200X0.584800*%
%ADD14R,1.571534X0.845481*%
%ADD15R,1.575000X0.849669*%
%ADD16R,1.570631X0.850059*%
%ADD17R,1.575209X0.848509*%
%ADD18R,1.570925X0.846681*%
%ADD19R,1.573309X0.843969*%
%ADD20R,1.570572X0.846019*%
%ADD21R,1.574159X0.844100*%
%ADD22R,1.570606X0.843797*%
%ADD23R,1.574669X0.843188*%
%ADD24R,1.570925X0.841734*%
%ADD25R,1.576081X0.841650*%
%ADD26R,1.570881X0.840000*%
%ADD27R,1.573881X0.840841*%
%ADD28R,1.571856X0.841519*%
%ADD29R,1.574381X0.839281*%
%ADD30R,1.570541X0.834909*%
%ADD31R,1.574209X0.838309*%
%ADD32R,1.571409X0.838228*%
%ADD33R,1.576141X0.832881*%
%ADD34C,1.652800*%
%ADD35R,0.927300X0.902300*%
%ADD36R,0.902300X0.927300*%
%ADD37R,1.490200X3.020100*%
%ADD38R,0.859600X0.927300*%
%ADD39R,0.927300X0.859600*%
%ADD40R,1.704800X1.414800*%
%ADD41R,0.903900X2.273300*%
%ADD42R,3.404800X2.904800*%
%ADD43R,1.604800X1.404800*%
%ADD44R,1.404800X2.204800*%
%ADD45R,4.804800X2.604800*%
%ADD46C,1.604800*%
%ADD47C,1.354800*%
%ADD48R,1.464800X1.774800*%
%ADD49R,1.784800X1.404800*%
%ADD50R,1.254800X1.164600*%
%ADD51R,1.545000X0.893900*%
%ADD52R,4.004800X1.284800*%
%ADD53R,3.304800X1.904800*%
%ADD54R,1.804800X1.004800*%
%ADD55C,0.904800*%
%ADD56R,1.804800X1.804800*%
%ADD57R,1.603000X0.906300*%
%ADD58R,0.965200X1.181100*%
%ADD59R,0.844800X0.904800*%
%ADD60R,0.654800X0.554800*%
%ADD61R,0.554800X0.554800*%
%ADD62R,1.034800X0.814800*%
%ADD63R,1.304800X1.354800*%
%ADD64R,1.354800X2.504800*%
%ADD65R,1.700400X0.584800*%
%ADD66R,4.143300X5.417100*%
%ADD67R,1.174800X1.284800*%
%ADD68R,2.604800X3.604800*%
%ADD69R,1.294800X2.224800*%
%ADD70R,1.416000X0.905600*%
%ADD71C,0.574800*%
%ADD72R,1.354800X1.304800*%
%ADD73R,2.504800X1.354800*%
%ADD74R,1.295400X3.505200*%
%ADD75R,10.718800X11.760200*%
%ADD76R,1.574800X0.838200*%
%ADD77C,1.812800*%
%ADD78C,1.204800*%
%ADD79C,1.304800*%
%ADD80R,1.954800X1.954800*%
%ADD81C,1.954800*%
%ADD82C,1.061200*%


D10*
X253100Y684900D03*
X608200Y1080000D03*
X770000Y40000D03*
X40000Y40000D03*
X40000Y1160000D03*
X770000Y1160000D03*
D11*
X567900Y588942D03*
X567900Y550942D03*
X630900Y588942D03*
X630900Y550942D03*
D12*
X348000Y435096D03*
X353000Y435096D03*
X358000Y435096D03*
X363000Y435096D03*
X368000Y435096D03*
X373000Y435096D03*
X378000Y435096D03*
X383000Y435096D03*
X388000Y435096D03*
X393000Y435096D03*
X398000Y435096D03*
X403000Y435096D03*
X408000Y435096D03*
X413000Y435096D03*
X418000Y435096D03*
X423000Y435096D03*
X428000Y435096D03*
X433000Y435096D03*
X438000Y435096D03*
X443000Y435096D03*
X448000Y435096D03*
X453000Y435096D03*
X458000Y435096D03*
X463000Y435096D03*
X468000Y435096D03*
D13*
X484204Y451300D03*
X484204Y456300D03*
X484204Y461300D03*
X484204Y466300D03*
X484204Y471300D03*
X484204Y476300D03*
X484204Y481300D03*
X484204Y486300D03*
X484204Y491300D03*
X484204Y496300D03*
X484204Y501300D03*
X484204Y506300D03*
X484204Y511300D03*
X484204Y516300D03*
X484204Y521300D03*
X484204Y526300D03*
X484204Y531300D03*
X484204Y536300D03*
X484204Y541300D03*
X484204Y546300D03*
X484204Y551300D03*
X484204Y556300D03*
X484204Y561300D03*
X484204Y566300D03*
X484204Y571300D03*
D12*
X468000Y587504D03*
X463000Y587504D03*
X458000Y587504D03*
X453000Y587504D03*
X448000Y587504D03*
X443000Y587504D03*
X438000Y587504D03*
X433000Y587504D03*
X428000Y587504D03*
X423000Y587504D03*
X418000Y587504D03*
X413000Y587504D03*
X408000Y587504D03*
X403000Y587504D03*
X398000Y587504D03*
X393000Y587504D03*
X388000Y587504D03*
X383000Y587504D03*
X378000Y587504D03*
X373000Y587504D03*
X368000Y587504D03*
X363000Y587504D03*
X358000Y587504D03*
X353000Y587504D03*
X348000Y587504D03*
D13*
X331796Y571300D03*
X331796Y566300D03*
X331796Y561300D03*
X331796Y556300D03*
X331796Y551300D03*
X331796Y546300D03*
X331796Y541300D03*
X331796Y536300D03*
X331796Y531300D03*
X331796Y526300D03*
X331796Y521300D03*
X331796Y516300D03*
X331796Y511300D03*
X331796Y506300D03*
X331796Y501300D03*
X331796Y496300D03*
X331796Y491300D03*
X331796Y486300D03*
X331796Y481300D03*
X331796Y476300D03*
X331796Y471300D03*
X331796Y466300D03*
X331796Y461300D03*
X331796Y456300D03*
X331796Y451300D03*
D14*
X281132Y894067D03*
D15*
X248855Y894088D03*
D16*
X281137Y881390D03*
D17*
X248854Y881383D03*
D18*
X281135Y868673D03*
D19*
X248863Y868660D03*
D20*
X281137Y855970D03*
D21*
X248859Y855960D03*
D22*
X281137Y843259D03*
D23*
X248857Y843256D03*
D24*
X281135Y830549D03*
D25*
X248850Y830548D03*
D26*
X281136Y817840D03*
D27*
X248861Y817844D03*
D28*
X281131Y805148D03*
D29*
X248858Y805136D03*
D30*
X281137Y792415D03*
D31*
X248859Y792432D03*
D32*
X281133Y779731D03*
D33*
X248849Y779704D03*
D34*
X265000Y937500D03*
X277700Y950200D03*
X252300Y950200D03*
X277700Y924800D03*
X252300Y924800D03*
X265000Y987500D03*
X277700Y1000200D03*
X252300Y1000200D03*
X277700Y974800D03*
X252300Y974800D03*
D35*
X546826Y587307D03*
X546826Y578057D03*
D36*
X436725Y355166D03*
X445975Y355166D03*
D37*
X438384Y378052D03*
X467684Y378052D03*
D35*
X512100Y564275D03*
X512100Y573525D03*
D36*
X358311Y612860D03*
X349061Y612860D03*
D35*
X406834Y355289D03*
X406834Y346039D03*
X383964Y355289D03*
X383964Y346039D03*
X358764Y365989D03*
X358764Y356739D03*
X333164Y365989D03*
X333164Y356739D03*
D38*
X281876Y478447D03*
X291552Y478447D03*
D35*
X286200Y411075D03*
X286200Y420325D03*
D39*
X703000Y427838D03*
X703000Y418162D03*
D40*
X678000Y432096D03*
X678000Y413904D03*
X678000Y484096D03*
X678000Y465904D03*
D41*
X679950Y252266D03*
X692650Y252266D03*
X705350Y252266D03*
X718050Y252266D03*
X718050Y301734D03*
X705350Y301734D03*
X692650Y301734D03*
X679950Y301734D03*
D42*
X699000Y277000D03*
D43*
X383500Y370000D03*
X406500Y370000D03*
X406500Y388000D03*
X383500Y388000D03*
D44*
X333500Y384000D03*
X358500Y384000D03*
D45*
X259350Y387700D03*
X95350Y387700D03*
D46*
X216850Y387700D03*
D47*
X142350Y387700D03*
D48*
X759250Y201100D03*
X741750Y201100D03*
D49*
X685000Y385130D03*
X685000Y366870D03*
X750800Y384830D03*
X750800Y366570D03*
D35*
X690000Y329375D03*
X690000Y338625D03*
D39*
X730800Y329262D03*
X730800Y338938D03*
X743400Y338938D03*
X743400Y329262D03*
X718400Y338638D03*
X718400Y328962D03*
D50*
X704200Y329049D03*
X704200Y344951D03*
D36*
X638625Y417000D03*
X629375Y417000D03*
D51*
X643556Y440500D03*
X643556Y459500D03*
X622444Y450000D03*
D52*
X643000Y313050D03*
X643000Y336750D03*
D53*
X653300Y198900D03*
X697300Y198900D03*
D52*
X730000Y463150D03*
X730000Y486850D03*
D54*
X54000Y723000D03*
X54000Y712000D03*
X54000Y701000D03*
X54000Y690000D03*
X54000Y679000D03*
X54000Y668000D03*
X54000Y657000D03*
X54000Y646000D03*
X194000Y646000D03*
X194000Y657000D03*
X194000Y668000D03*
X194000Y679000D03*
X194000Y690000D03*
X194000Y701000D03*
X194000Y712000D03*
X194000Y723000D03*
D55*
X101500Y655000D03*
X116500Y655000D03*
X131500Y655000D03*
X146500Y655000D03*
X101500Y667000D03*
X116500Y667000D03*
X131500Y667000D03*
X146500Y667000D03*
X101500Y679000D03*
X116500Y679000D03*
X131500Y679000D03*
X146500Y679000D03*
X101500Y691000D03*
X116500Y691000D03*
X131500Y691000D03*
X146500Y691000D03*
X101500Y703000D03*
X101500Y715000D03*
X116500Y715000D03*
X116500Y703000D03*
X131500Y703000D03*
X131500Y715000D03*
X146500Y715000D03*
X146500Y703000D03*
D56*
X90300Y735000D03*
X112800Y735000D03*
X135300Y735000D03*
X157800Y735000D03*
D38*
X214462Y635000D03*
X224138Y635000D03*
D57*
X582166Y311200D03*
X582166Y330200D03*
X561634Y320700D03*
D58*
X666000Y837788D03*
X677000Y837788D03*
X688000Y837788D03*
X699000Y837788D03*
X710000Y837788D03*
X721000Y837788D03*
X732000Y837788D03*
X743000Y837788D03*
X754000Y837788D03*
X754000Y936213D03*
X743000Y936213D03*
X732000Y936213D03*
X721000Y936213D03*
X710000Y936213D03*
X699000Y936213D03*
X688000Y936213D03*
X677000Y936213D03*
X666000Y936213D03*
D59*
X743280Y811600D03*
X751920Y811600D03*
D36*
X752625Y799100D03*
X743375Y799100D03*
X743075Y824000D03*
X752325Y824000D03*
X678175Y810900D03*
X687425Y810900D03*
X666675Y823500D03*
X675925Y823500D03*
X697875Y796100D03*
X707125Y796100D03*
X701175Y950200D03*
X710425Y950200D03*
D35*
X742900Y947675D03*
X742900Y956925D03*
D60*
X740400Y972600D03*
X737900Y968600D03*
X742900Y968600D03*
X737900Y964600D03*
X742900Y964600D03*
D61*
X732500Y983300D03*
X736500Y983300D03*
X740500Y983300D03*
X740500Y987300D03*
X736500Y987300D03*
X732500Y987300D03*
D62*
X736500Y996600D03*
X736500Y1005800D03*
D35*
X736400Y1014275D03*
X736400Y1023525D03*
X721000Y978725D03*
X721000Y969475D03*
D39*
X721400Y1004038D03*
X721400Y994362D03*
D63*
X736700Y1035850D03*
D64*
X721950Y1051100D03*
X751450Y1051100D03*
D45*
X260350Y543700D03*
X96350Y543700D03*
D46*
X217850Y543700D03*
D47*
X143350Y543700D03*
D65*
X646127Y155600D03*
X646127Y150600D03*
X646127Y145600D03*
X646127Y140600D03*
X646127Y135600D03*
X689873Y135600D03*
X689873Y140600D03*
X689873Y145600D03*
X689873Y150600D03*
X689873Y155600D03*
D66*
X679115Y88800D03*
X728155Y88800D03*
D38*
X707162Y147600D03*
X716838Y147600D03*
X707162Y134600D03*
X716838Y134600D03*
D67*
X678700Y39000D03*
X694300Y39000D03*
D68*
X532900Y227700D03*
X602900Y227700D03*
D69*
X619900Y376000D03*
X664100Y376000D03*
D70*
X627450Y39400D03*
X661950Y39400D03*
D36*
X558375Y445000D03*
X567625Y445000D03*
D71*
X535500Y381604D02*
X535500Y374704D01*
X540500Y374704D02*
X540500Y381604D01*
X545500Y381604D02*
X545500Y374704D01*
X550500Y374704D02*
X550500Y381604D01*
X555500Y381604D02*
X555500Y374704D01*
X560500Y374704D02*
X560500Y381604D01*
X564396Y385500D02*
X571296Y385500D01*
X571296Y390500D02*
X564396Y390500D01*
X564396Y395500D02*
X571296Y395500D01*
X571296Y400500D02*
X564396Y400500D01*
X564396Y405500D02*
X571296Y405500D01*
X571296Y410500D02*
X564396Y410500D01*
X560500Y414396D02*
X560500Y421296D01*
X555500Y421296D02*
X555500Y414396D01*
X550500Y414396D02*
X550500Y421296D01*
X545500Y421296D02*
X545500Y414396D01*
X540500Y414396D02*
X540500Y421296D01*
X535500Y421296D02*
X535500Y414396D01*
X531604Y410500D02*
X524704Y410500D01*
X524704Y405500D02*
X531604Y405500D01*
X531604Y400500D02*
X524704Y400500D01*
X524704Y395500D02*
X531604Y395500D01*
X531604Y390500D02*
X524704Y390500D01*
X524704Y385500D02*
X531604Y385500D01*
D36*
X558375Y432000D03*
X567625Y432000D03*
D72*
X165250Y981000D03*
D73*
X150000Y966250D03*
X150000Y995750D03*
D72*
X165250Y1046000D03*
D73*
X150000Y1031250D03*
X150000Y1060750D03*
D74*
X542700Y43227D03*
D75*
X568100Y131492D03*
D74*
X593500Y43227D03*
D76*
X723808Y431398D03*
X723808Y422000D03*
X723808Y412602D03*
X748192Y412602D03*
X748192Y431398D03*
D77*
X459600Y273300D03*
X485000Y273300D03*
X325300Y273500D03*
X350700Y273500D03*
X237600Y273500D03*
X263000Y273500D03*
X288400Y273500D03*
X149600Y273500D03*
X175000Y273500D03*
X200400Y273500D03*
X61600Y273500D03*
X87000Y273500D03*
X112400Y273500D03*
X703000Y758100D03*
X703000Y732700D03*
X703000Y707300D03*
X703000Y681900D03*
D78*
X445200Y91200D03*
D79*
X365200Y91200D03*
D77*
X392600Y273800D03*
X418000Y273800D03*
D80*
X524700Y625200D03*
D81*
X550100Y625200D03*
X575500Y625200D03*
X600900Y625200D03*
X626300Y625200D03*
D77*
X703600Y645900D03*
X703600Y620500D03*
X703500Y584200D03*
X703500Y558800D03*
X703500Y533400D03*
D80*
X81000Y492400D03*
D81*
X81000Y467000D03*
X81000Y441600D03*
D49*
X707000Y385130D03*
X707000Y366870D03*
X729000Y385130D03*
X729000Y366870D03*
D82*
X360000Y565000D03*
X410000Y565000D03*
X460000Y565000D03*
X360000Y510000D03*
X360000Y460000D03*
X410000Y510000D03*
X460000Y510000D03*
X460000Y460000D03*
X410000Y460000D03*
X507900Y356000D03*
X620000Y400200D03*
X319900Y893600D03*
X734800Y300600D03*
X718500Y352400D03*
M02*
