G04 EAGLE Gerber RS-274X export*
G75*
%MOMM*%
%FSLAX34Y34*%
%LPD*%
%INSoldermask Bottom*%
%IPPOS*%
%AMOC8*
5,1,8,0,0,1.08239X$1,22.5*%
G01*
%ADD10C,3.304800*%
%ADD11C,1.652800*%
%ADD12R,0.902300X0.927300*%
%ADD13R,0.927300X0.902300*%
%ADD14R,1.164600X1.254800*%
%ADD15C,1.604800*%
%ADD16C,1.354800*%
%ADD17R,0.903900X2.360800*%
%ADD18R,1.254800X1.164600*%
%ADD19R,1.154800X0.554800*%
%ADD20R,1.954800X2.854800*%
%ADD21R,1.254800X1.004800*%
%ADD22R,0.859600X0.927300*%
%ADD23R,0.804800X0.804800*%
%ADD24C,0.456347*%
%ADD25R,0.854800X1.504800*%
%ADD26R,0.927300X0.859600*%
%ADD27R,1.603000X0.906300*%
%ADD28R,0.524800X0.584800*%
%ADD29C,1.812800*%
%ADD30R,1.004800X2.204800*%
%ADD31R,2.004800X2.104800*%
%ADD32R,1.704800X2.904800*%
%ADD33C,1.204800*%
%ADD34C,1.304800*%
%ADD35R,1.294800X2.224800*%
%ADD36R,1.954800X1.954800*%
%ADD37C,1.954800*%
%ADD38C,1.061200*%


D10*
X253100Y684900D03*
X608200Y1080000D03*
X770000Y40000D03*
X40000Y40000D03*
X40000Y1160000D03*
X770000Y1160000D03*
D11*
X265000Y937500D03*
X277700Y950200D03*
X252300Y950200D03*
X277700Y924800D03*
X252300Y924800D03*
X265000Y987500D03*
X277700Y1000200D03*
X252300Y1000200D03*
X277700Y974800D03*
X252300Y974800D03*
D12*
X394732Y407350D03*
X385482Y407350D03*
X500269Y471079D03*
X509519Y471079D03*
X501297Y548831D03*
X492047Y548831D03*
X501297Y561302D03*
X492047Y561302D03*
D13*
X357039Y601718D03*
X357039Y592468D03*
X369561Y601743D03*
X369561Y592493D03*
D12*
X315532Y462434D03*
X324782Y462434D03*
X370968Y407743D03*
X361718Y407743D03*
X500268Y483722D03*
X509518Y483722D03*
X315506Y475028D03*
X324756Y475028D03*
X445264Y394333D03*
X436014Y394333D03*
X459204Y394435D03*
X468454Y394435D03*
D14*
X445288Y408582D03*
X429386Y408582D03*
X459129Y408557D03*
X475031Y408557D03*
D15*
X216850Y387700D03*
D16*
X142350Y387700D03*
D17*
X197250Y198717D03*
X209950Y198717D03*
X222650Y198717D03*
X235350Y198717D03*
X248050Y198717D03*
X260750Y198717D03*
X273450Y198717D03*
X286150Y198717D03*
X286150Y105883D03*
X273450Y105883D03*
X260750Y105883D03*
X248050Y105883D03*
X235350Y105883D03*
X222650Y105883D03*
X209950Y105883D03*
X197250Y105883D03*
X64750Y197917D03*
X77450Y197917D03*
X90150Y197917D03*
X102850Y197917D03*
X115550Y197917D03*
X128250Y197917D03*
X140950Y197917D03*
X153650Y197917D03*
X153650Y105083D03*
X140950Y105083D03*
X128250Y105083D03*
X115550Y105083D03*
X102850Y105083D03*
X90150Y105083D03*
X77450Y105083D03*
X64750Y105083D03*
D18*
X197200Y220649D03*
X197200Y236551D03*
X235600Y220249D03*
X235600Y236151D03*
X216500Y236451D03*
X216500Y220549D03*
X254900Y220149D03*
X254900Y236051D03*
D14*
X196749Y81300D03*
X212651Y81300D03*
X63449Y80000D03*
X79351Y80000D03*
D18*
X65200Y219649D03*
X65200Y235551D03*
X104300Y219449D03*
X104300Y235351D03*
X84400Y235451D03*
X84400Y219549D03*
X124400Y219449D03*
X124400Y235351D03*
D19*
X587900Y746150D03*
X587900Y741650D03*
X587900Y737150D03*
X587900Y732650D03*
X587900Y728150D03*
X587900Y723650D03*
X558900Y723650D03*
X558900Y728150D03*
X558900Y732650D03*
X558900Y737150D03*
X558900Y741650D03*
X558900Y746150D03*
D20*
X573400Y734900D03*
D21*
X618750Y731900D03*
X635250Y731900D03*
D22*
X588362Y758600D03*
X598038Y758600D03*
X559038Y758800D03*
X549362Y758800D03*
D12*
X597825Y771100D03*
X588575Y771100D03*
X549575Y771300D03*
X558825Y771300D03*
D13*
X635200Y709275D03*
X635200Y718525D03*
D12*
X598975Y717800D03*
X608225Y717800D03*
D23*
X598400Y707700D03*
X608400Y707700D03*
D13*
X604500Y738075D03*
X604500Y747325D03*
D24*
X343043Y650057D02*
X324057Y650057D01*
X324057Y654443D01*
X343043Y654443D01*
X343043Y650057D01*
X343043Y654392D02*
X324057Y654392D01*
X324057Y662757D02*
X343043Y662757D01*
X324057Y662757D02*
X324057Y667143D01*
X343043Y667143D01*
X343043Y662757D01*
X343043Y667092D02*
X324057Y667092D01*
X324057Y675457D02*
X343043Y675457D01*
X324057Y675457D02*
X324057Y679843D01*
X343043Y679843D01*
X343043Y675457D01*
X343043Y679792D02*
X324057Y679792D01*
X324057Y688157D02*
X343043Y688157D01*
X324057Y688157D02*
X324057Y692543D01*
X343043Y692543D01*
X343043Y688157D01*
X343043Y692492D02*
X324057Y692492D01*
X324057Y700857D02*
X343043Y700857D01*
X324057Y700857D02*
X324057Y705243D01*
X343043Y705243D01*
X343043Y700857D01*
X343043Y705192D02*
X324057Y705192D01*
X324057Y713557D02*
X343043Y713557D01*
X324057Y713557D02*
X324057Y717943D01*
X343043Y717943D01*
X343043Y713557D01*
X343043Y717892D02*
X324057Y717892D01*
X324057Y726257D02*
X343043Y726257D01*
X324057Y726257D02*
X324057Y730643D01*
X343043Y730643D01*
X343043Y726257D01*
X343043Y730592D02*
X324057Y730592D01*
X324057Y738957D02*
X343043Y738957D01*
X324057Y738957D02*
X324057Y743343D01*
X343043Y743343D01*
X343043Y738957D01*
X343043Y743292D02*
X324057Y743292D01*
X417157Y738957D02*
X436143Y738957D01*
X417157Y738957D02*
X417157Y743343D01*
X436143Y743343D01*
X436143Y738957D01*
X436143Y743292D02*
X417157Y743292D01*
X417157Y726257D02*
X436143Y726257D01*
X417157Y726257D02*
X417157Y730643D01*
X436143Y730643D01*
X436143Y726257D01*
X436143Y730592D02*
X417157Y730592D01*
X417157Y713557D02*
X436143Y713557D01*
X417157Y713557D02*
X417157Y717943D01*
X436143Y717943D01*
X436143Y713557D01*
X436143Y717892D02*
X417157Y717892D01*
X417157Y700857D02*
X436143Y700857D01*
X417157Y700857D02*
X417157Y705243D01*
X436143Y705243D01*
X436143Y700857D01*
X436143Y705192D02*
X417157Y705192D01*
X417157Y688157D02*
X436143Y688157D01*
X417157Y688157D02*
X417157Y692543D01*
X436143Y692543D01*
X436143Y688157D01*
X436143Y692492D02*
X417157Y692492D01*
X417157Y675457D02*
X436143Y675457D01*
X417157Y675457D02*
X417157Y679843D01*
X436143Y679843D01*
X436143Y675457D01*
X436143Y679792D02*
X417157Y679792D01*
X417157Y662757D02*
X436143Y662757D01*
X417157Y662757D02*
X417157Y667143D01*
X436143Y667143D01*
X436143Y662757D01*
X436143Y667092D02*
X417157Y667092D01*
X417157Y650057D02*
X436143Y650057D01*
X417157Y650057D02*
X417157Y654443D01*
X436143Y654443D01*
X436143Y650057D01*
X436143Y654392D02*
X417157Y654392D01*
D15*
X217850Y543700D03*
D16*
X143350Y543700D03*
D22*
X449062Y665000D03*
X458738Y665000D03*
X449062Y652400D03*
X458738Y652400D03*
X309738Y677100D03*
X300062Y677100D03*
D12*
X309325Y664600D03*
X300075Y664600D03*
D25*
X154400Y496200D03*
X163900Y496200D03*
X173400Y496200D03*
X173400Y470200D03*
X154400Y470200D03*
D26*
X173300Y508862D03*
X173300Y518538D03*
X154400Y509362D03*
X154400Y519038D03*
D12*
X167825Y455200D03*
X158575Y455200D03*
D27*
X315534Y312600D03*
X315534Y331600D03*
X336066Y322100D03*
D28*
X356300Y294300D03*
X359900Y294300D03*
D22*
X363038Y306400D03*
X353362Y306400D03*
X363038Y318900D03*
X353362Y318900D03*
X353362Y331400D03*
X363038Y331400D03*
X353362Y343900D03*
X363038Y343900D03*
D29*
X459600Y273300D03*
X485000Y273300D03*
X325300Y273500D03*
X350700Y273500D03*
X237600Y273500D03*
X263000Y273500D03*
X288400Y273500D03*
X149600Y273500D03*
X175000Y273500D03*
X200400Y273500D03*
X61600Y273500D03*
X87000Y273500D03*
X112400Y273500D03*
X703000Y758100D03*
X703000Y732700D03*
X703000Y707300D03*
X703000Y681900D03*
D30*
X373200Y201700D03*
X384200Y201700D03*
X395200Y201700D03*
X406200Y201700D03*
X417200Y201700D03*
X428200Y201700D03*
X439200Y201700D03*
X450200Y201700D03*
X461200Y201700D03*
D31*
X476700Y191200D03*
X321700Y191200D03*
D32*
X474200Y95200D03*
X317200Y95200D03*
D33*
X445200Y91200D03*
D34*
X365200Y91200D03*
D35*
X553600Y684500D03*
X597800Y684500D03*
D29*
X392600Y273800D03*
X418000Y273800D03*
D36*
X524700Y625200D03*
D37*
X550100Y625200D03*
X575500Y625200D03*
X600900Y625200D03*
X626300Y625200D03*
D29*
X703600Y645900D03*
X703600Y620500D03*
X703500Y584200D03*
X703500Y558800D03*
X703500Y533400D03*
D36*
X81000Y492400D03*
D37*
X81000Y467000D03*
X81000Y441600D03*
D38*
X360000Y565000D03*
X410000Y565000D03*
X460000Y565000D03*
X360000Y510000D03*
X360000Y460000D03*
X410000Y510000D03*
X460000Y510000D03*
X460000Y460000D03*
X410000Y460000D03*
X507900Y356000D03*
X620000Y400200D03*
X319900Y893600D03*
X734800Y300600D03*
X718500Y352400D03*
M02*
