M48
;GenerationSoftware,Autodesk,EAGLE,9.6.0*%
;CreationDate,2020-05-08T17:50:23Z*%
FMAT,2
ICI,OFF
METRIC,TZ,000.000
T9C0.200
T8C0.350
T7C0.840
T6C0.900
T5C1.000
T4C1.050
T3C1.100
T2C1.300
T1C3.000
%
G90
M71
T1
X25310Y68490
X60820Y108000
X77000Y4000
X4000Y4000
X4000Y116000
X77000Y116000
T2
X21685Y38770
X21785Y54370
T3
X55010Y62520
X52470Y62520
X8100Y46700
X60090Y62520
X8100Y49240
X62630Y62520
X8100Y44160
X57550Y62520
T4
X14235Y38770
X14335Y54370
T5
X20040Y27350
X6160Y27350
X8700Y27350
X11240Y27350
X70300Y75810
X70300Y70730
X70300Y68190
X39260Y27380
X41800Y27380
X70360Y64590
X70360Y62050
X70350Y58420
X70350Y55880
X70350Y53340
X36520Y9120
X70300Y73270
X26300Y27350
X45960Y27330
X48500Y27330
X32530Y27350
X35070Y27350
X23760Y27350
X28840Y27350
X14960Y27350
X17500Y27350
T6
X44520Y9120
T7
X26500Y93750
X27770Y92480
X25230Y95020
X25230Y100020
X25230Y97480
X27770Y97480
X27770Y100020
X26500Y98750
X27770Y95020
X25230Y92480
T8
X46000Y51000
X46000Y46000
X41000Y46000
X31990Y89360
X62000Y40020
X50790Y35600
X36000Y56500
X46000Y56500
X36000Y51000
X36000Y46000
X73480Y30060
X71850Y35240
X41000Y56500
X41000Y51000
T9
X3500Y42000
X6000Y32000
X3500Y32000
X3500Y22000
X3500Y12600
X8900Y2200
X17500Y8100
X23700Y8100
X17300Y16800
X26900Y14900
X26900Y17800
X32800Y14800
X32600Y24700
X20100Y25000
X15000Y24600
X6200Y24700
X11400Y16800
X6200Y16700
X15900Y28700
X36000Y17900
X33300Y9500
X29600Y6000
X40600Y24000
X47300Y24000
X47400Y16300
X47400Y7200
X52600Y6200
X46000Y29000
X44400Y27400
X39200Y29000
X37800Y27400
X48600Y32500
X52500Y27100
X59200Y27100
X63100Y19900
X63000Y13700
X63000Y8700
X70100Y49600
X65100Y49500
X61800Y43500
X70100Y46900
X70100Y40300
X66300Y40300
X74000Y40300
X66300Y35700
X72900Y35400
X66200Y28300
X66200Y24500
X60900Y32600
X66600Y16600
X65700Y12300
X67700Y12300
X69400Y2400
X74300Y2400
X77000Y37000
X77000Y27000
X77000Y17000
X77000Y7000
X8500Y71200
X15800Y67900
X8500Y67800
X3700Y67800
X17600Y74700
X21600Y73400
X37500Y79800
X40300Y75900
X30400Y79800
X21800Y77600
X21800Y81900
X21900Y86100
X22000Y89600
X26500Y77600
X37500Y87600
X49100Y75800
X49200Y68100
X61700Y68100
X61800Y75700
X57400Y75800
X51400Y54000
X60000Y54000
X60000Y60200
X72800Y75800
X72700Y64600
X72700Y58400
X32700Y43100
X26100Y36100
X22200Y44300
X21600Y34900
X23700Y29000
X31000Y29600
X31400Y34800
X39600Y35700
X34600Y37200
X13300Y34900
X52300Y44500
X52000Y36800
X60000Y79300
X50600Y79200
X27900Y72500
X36600Y72000
X45200Y41870
X50000Y45970
X50100Y57100
X34800Y60200
X31600Y45300
X71470Y12600
X24530Y63460
X72570Y14580
X67820Y51010
X39680Y41900
X37260Y42000
X44380Y42000
X47660Y43040
X49730Y43140
X64350Y47400
X30160Y86860
X33130Y82270
X54660Y56640
X30330Y84780
X66400Y80700
X68000Y79900
X69700Y80900
X72900Y81000
X75100Y106900
X76400Y105100
X72200Y106900
X71000Y105100
X72200Y103300
X75100Y103300
X74700Y102400
X74700Y101200
X74700Y100000
X72500Y102400
X72500Y101400
X70900Y100500
X71500Y101400
X75000Y98700
X75000Y97700
X75200Y96700
X73300Y95200
X75400Y95300
X73000Y96200
X65700Y106900
X68700Y106900
X68700Y103900
X65700Y103900
X65700Y100900
X68700Y100900
X68700Y97900
X65700Y97900
X68700Y94900
X77200Y106900
X77200Y103900
X77200Y100900
X77200Y97900
X77200Y94900
X77200Y91900
X77200Y88900
X77200Y85900
X77200Y82900
X77200Y79900
X65200Y91900
X65200Y88900
X65200Y85900
X68700Y91900
X73700Y91900
X73700Y88900
X68700Y88900
X68700Y86400
X73700Y86400
X24820Y41800
X72130Y82250
X52340Y58720
X42050Y38700
X26200Y12650
X25010Y13380
X21920Y51670
X22120Y48350
X19750Y51120
X69130Y12660
X20750Y51610
X15390Y56570
X50820Y3290
X39600Y17940
X40300Y16740
X40990Y15570
X41720Y14350
X45350Y15390
X35420Y63930
X49080Y61950
X70120Y12640
X27630Y62500
X22360Y62100
X52140Y3250
X44640Y14280
X43930Y13180
X54420Y73730
X54390Y72340
X28510Y59590
X29810Y51810
X12300Y63000
X12300Y61900
X12300Y60800
X53700Y73100
X61900Y74300
X70910Y99450
X72090Y95160
X23070Y56090
X30300Y76540
X33240Y77950
X28520Y34230
X44040Y6000
X44040Y3920
X29460Y34230
X45120Y5990
X45120Y3890
X30990Y68930
X51350Y33950
X42550Y34780
X46780Y35320
X38250Y33220
X27340Y8430
X47600Y35320
X39180Y33180
X28660Y8440
X48890Y35570
X48870Y34030
X12840Y8110
X49690Y35570
X49720Y33990
X11560Y8140
X55140Y48050
X55030Y45210
X52450Y48070
X54070Y45150
X34380Y34340
X66590Y76300
X67980Y77870
X66240Y77800
X69180Y77860
X47580Y63420
X36420Y63910
X49090Y62920
X64830Y75950
X72170Y79610
X15000Y101900
X15000Y107300
X16800Y106100
X13200Y106100
X16800Y103100
X13200Y103100
X15000Y100800
X16800Y99600
X13200Y99600
X15000Y95400
X16800Y96600
X13200Y96600
X17800Y105400
X19000Y105400
X20300Y105400
X21600Y105400
X17800Y103800
X30380Y54390
X20300Y103800
X21600Y103800
X23000Y105400
X24500Y105400
X25700Y104900
X26600Y104100
X23000Y103800
X24300Y103700
X25400Y103100
X25700Y102000
X25200Y101300
X27100Y103000
X27300Y101700
X28200Y101300
X23900Y100000
X29100Y100000
X28600Y98800
X24500Y98800
X23900Y97500
X29100Y97500
X26500Y96900
X29100Y95000
X23900Y95000
X28600Y93800
X29100Y92500
X27800Y91300
X25300Y91300
X26500Y91800
X23900Y92500
X26500Y95600
X17600Y97300
X17600Y98900
X18900Y97300
X18900Y98900
X20200Y98700
X21300Y98000
X22000Y96900
X20200Y96900
X20600Y95800
X22100Y95600
X23000Y94600
X20800Y94500
X21600Y93600
X22900Y93000
X11200Y107100
X11200Y101100
X11200Y95100
X18700Y107100
X22700Y107100
X26700Y107100
X18700Y95100
X29700Y104600
X29700Y101100
X18700Y101100
X19000Y103800
X21700Y91600
X53430Y49870
X57280Y42060
X58140Y39740
X37290Y12610
X44510Y11710
X43420Y2810
X34510Y28930
X54760Y33990
X20570Y46660
X20000Y49560
X20610Y60660
X45250Y36720
X30180Y47440
X58430Y46500
X15760Y71420
X42980Y42150
X29860Y88120
X57390Y71540
X12780Y56840
X12880Y46640
X16480Y60240
X56940Y37840
X54340Y39840
X28970Y44260
X47850Y42120
X49950Y42120
X45150Y38520
X70000Y114000
X60000Y114000
X50000Y114000
X40000Y114000
X30000Y114000
X20000Y114000
X10000Y114000
X40000Y104000
X50000Y104000
X60000Y104000
X60000Y94000
X50000Y94000
X40000Y94000
X60000Y84000
X50000Y84000
X6000Y104000
X6000Y94000
X6000Y84000
X6000Y74000
X16000Y84000
X77000Y77000
X77000Y67000
X77000Y57000
X6000Y52000
X6000Y42000
X3300Y52000
X22200Y101100
M30